<?xml version="1.0" encoding="utf-8"?>
<!-- Generator: Adobe Illustrator 21.0.0, SVG Export Plug-In . SVG Version: 6.00 Build 0)  -->
<svg version="1.1" id="图层_1" xmlns="http://www.w3.org/2000/svg" xmlns:xlink="http://www.w3.org/1999/xlink" x="0px" y="0px"
	 viewBox="0 0 380 342" style="enable-background:new 0 0 380 342;" xml:space="preserve">
<style type="text/css">
	.st0{fill:#F9F9F9;}
	.st1{fill:#F4F4F4;}
	.st2{fill:#BABABA;}
	.st3{fill:#E0E0E0;}
	.st4{fill:#D3D3D3;}
	.st5{fill:#EFEFEF;}
	.st6{fill:#DDDDDD;}
	.st7{fill:#C6C6C6;}
	.st8{fill:#DBDBDB;}
	.st9{fill:#C1C1C1;}
	.st10{fill:#EDEDED;}
	.st11{fill:#A0A0A0;}
	.st12{fill:#FFFEFF;}
	.st13{fill:#566CD3;}
	.st14{fill:#FFFFFF;}
	.st15{fill:#05B570;}
	.st16{fill:#757575;}
</style>
<path class="st0" d="M331,296.1H167c-19.3,0-35-15.8-35-35l0,0c0-19.2,15.7-35,35-35h164c19.2,0,35,15.8,35,35l0,0
	C366,280.3,350.3,296.1,331,296.1z"/>
<path class="st0" d="M258.5,322.8h-203c-15.1,0-27.5-12.4-27.5-27.5l0,0c0-15.1,12.4-27.5,27.5-27.5h203c15.1,0,27.5,12.4,27.5,27.5
	l0,0C286,310.5,273.6,322.8,258.5,322.8z"/>
<g>
	<path class="st1" d="M88,135h197c0.5,0,1,0.5,1,1v120c0,0.5-0.5,1-1,1H88c-0.5,0-1-0.5-1-1V136C87,135.5,87.5,135,88,135z"/>
	<path class="st2" d="M101.5,145.5h170c0.5,0,1,0.5,1,1v99c0,0.5-0.5,1-1,1h-170c-0.5,0-1-0.5-1-1v-99
		C100.5,146,101,145.5,101.5,145.5z"/>
	<path class="st3" d="M295.8,268.5H76.3c-4.3,0-7.8-3.5-7.8-7.8v-2.3c0-0.5,0.4-1,1-1h233c0.5,0,1,0.5,1,1v2.3
		C303.5,265,300,268.5,295.8,268.5z"/>
	<polygon class="st4" points="232.5,215.1 189.7,236.5 182.3,221.7 158.5,173.9 201.3,152.5 	"/>
	<path class="st5" d="M181.5,170.5V224v16.5h52v-70H181.5z M227.5,209.5h-39v-7h39V209.5z M227.5,198.5h-39v-7h39V198.5z
		 M227.5,187.5h-39v-7h39V187.5z"/>
	<path class="st6" d="M282.1,77h-11.2c-0.6-4.3-4.5-21-28.9-21c-19.5,0-27.6,12.5-32,21c-0.6,1.1-1,2.5-1.4,3.7
		c-0.5,1.4-0.7,2.3-0.7,2.3h-6c-0.8,0-1.6,0.1-2.4,0.2h-0.1l0,0c-10.6,1.3-18.8,10.4-18.5,21.4c0.3,11.5,10,20.4,21.5,20.4H282
		c12,0,21.9-9.8,21.9-21.9v-4.3C304,86.8,294.2,77,282.1,77z"/>
	<path class="st7" d="M101.7,200.7l-46.4-46.4c-0.8-0.8-2.2-0.8-3.1,0l-29.9,29.9c-0.8,0.8-0.8,2.2,0,3.1l46.4,46.4
		c0.8,0.8,2.2,0.8,3.1,0l29.9-29.9C102.5,202.9,102.5,201.5,101.7,200.7z M65.3,198.6c-1.1,0-2.2-0.2-3.2-0.6l-4.3,4.9
		c-1,1.1-2.6,1.2-3.7,0.2c-1.1-1-1.2-2.6-0.2-3.7l4.1-4.7c-0.9-1.4-1.5-3-1.5-4.8c0-4.8,3.9-8.7,8.7-8.7s8.7,3.9,8.7,8.7
		C74,194.7,70.1,198.6,65.3,198.6z"/>
	<circle class="st8" cx="198.5" cy="35.5" r="6"/>
	<circle class="st8" cx="313.5" cy="175.5" r="6"/>
	<circle class="st8" cx="338.5" cy="145.5" r="4"/>
	<circle class="st8" cx="36.5" cy="245.5" r="3"/>
	<polygon class="st9" points="190.5,64 186,64 186,60 185,60 185,64 180.5,64 180.5,65 185,65 185,69 186,69 186,65 190.5,65 	"/>
	<polygon class="st9" points="300.5,64 296,64 296,60 295,60 295,64 290.5,64 290.5,65 295,65 295,69 296,69 296,65 300.5,65 	"/>
	<polygon class="st9" points="344.5,214 340,214 340,210 339,210 339,214 334.5,214 334.5,215 339,215 339,219 340,219 340,215 
		344.5,215 	"/>
	<circle class="st8" cx="78.5" cy="75.5" r="4"/>
	<polygon class="st9" points="54.5,124 50,124 50,120 49,120 49,124 44.5,124 44.5,125 49,125 49,129 50,129 50,125 54.5,125 	"/>
	<g>
		<path class="st10" d="M87,141.2c-7.3-0.6-14.8,1.9-20.2,7.5l-8.4,8.6l6.4,6.4l7.1-7.4c4.1-4.2,9.6-6.1,15.1-5.8V141.2z"/>
		<path class="st10" d="M107.3,153l-5-4.8c-0.4-0.4-0.9-0.8-1.3-1.2v11.3c5.6,7.4,5.1,18-1.5,24.8l-7.6,7.8l7,7l9-9.3
			C117.5,178.6,117.3,162.6,107.3,153z"/>
	</g>
	<g>
		<g>
			<g>
				<g>
					<g>
						<path class="st10" d="M117,119.8c-1.5,0-3-0.7-4-2L96.1,94.6c-1.3-1.8-1.2-4.3,0.2-6l22.1-26.9c1.7-2.1,4.8-2.4,6.9-0.7
							s2.4,4.8,0.7,6.9l-19.7,24L121,112c1.6,2.2,1.1,5.2-1.1,6.8C119,119.5,118,119.8,117,119.8z"/>
					</g>
				</g>
			</g>
		</g>
		<g>
			<g>
				<g>
					<g>
						<path class="st10" d="M149.5,119.8c-1,0-2-0.3-2.9-0.9c-2.2-1.6-2.7-4.7-1.1-6.8l14.8-20.2L140.7,68c-1.7-2.1-1.4-5.2,0.7-6.9
							s5.2-1.4,6.9,0.7l22.1,26.8c1.4,1.7,1.5,4.2,0.2,6l-17,23.2C152.5,119.1,151,119.8,149.5,119.8z"/>
					</g>
				</g>
			</g>
		</g>
		<g>
			<g>
				<g>
					<g>
						<circle class="st11" cx="133.8" cy="31.8" r="14.1"/>
					</g>
				</g>
			</g>
		</g>
		<g>
			<g>
				<g>
					<g>
						<polygon class="st12" points="139,49.1 138.9,62.6 138.9,71.3 128.6,71.3 129.1,49.9 129.3,43.8 						"/>
					</g>
				</g>
			</g>
		</g>
		<g>
			<g>
				<g>
					<g>
						<path class="st10" d="M118.5,70.2c0-4.2,3.7-8.2,7.4-10.2c5.6-2.9,14.3-0.9,17,0.8c4.7,2.8,7.5,8.5,7.2,14.3l0.3,31.3h-33.3
							C117.2,106.4,118.4,79.7,118.5,70.2z"/>
					</g>
				</g>
			</g>
		</g>
		<g>
			<g>
				<g>
					<g>
						<path class="st12" d="M141.2,59.9c-4.1-1.7-9.9-2.3-14.5-0.3l3.5,3.5c2.2,2.2,5.7,2.2,7.9,0C139,62.1,140.1,61,141.2,59.9z"/>
					</g>
				</g>
			</g>
		</g>
		<g>
			<g>
				<g>
					<g>
						<path class="st12" d="M136.5,23.7h-5.4c-4.7,0-9.2,3.9-8.6,8.6c0.4,3.4,0,6,0,11.1c0,4.3,5,12.5,9.2,12.5h4
							c4.3,0,9.2-8.3,9.2-12.5c0-5.1-0.4-7.6,0-11.1C145.6,27.6,141.2,23.7,136.5,23.7z"/>
					</g>
				</g>
			</g>
		</g>
		<g>
			<g>
				<g>
					<g>
						<path class="st11" d="M129.4,51.8c0.4-2.1,2.2-3.6,4.3-3.6c2.2,0,4,1.6,4.3,3.6H129.4z"/>
					</g>
				</g>
			</g>
		</g>
		<g>
			<g>
				<g>
					<g>
						<path class="st13" d="M139.1,136.3h-10.7c-7.7,0-13.4-7-11.9-14.6l0.6-15.4h33.3l0.6,15.4
							C152.6,129.3,146.8,136.3,139.1,136.3z"/>
					</g>
				</g>
			</g>
		</g>
		<g>
			<g>
				<g>
					<g>
						<path class="st10" d="M85.1,119.1l45.4-4.3l1.3,13.6l-45.4,4.3c-3.7,0.4-7-2.4-7.4-6.1v-0.1C78.7,122.8,81.4,119.5,85.1,119.1
							z"/>
					</g>
				</g>
			</g>
		</g>
		<g>
			<g>
				<g>
					<g>
						<path class="st10" d="M175.8,119.1l-45.4-4.3l-1.3,13.6l45.4,4.3c3.7,0.4,7-2.4,7.4-6.1v-0.1
							C182.2,122.8,179.5,119.5,175.8,119.1z"/>
					</g>
				</g>
			</g>
		</g>
		<g>
			<g>
				<g>
					<g>
						<path class="st14" d="M151.6,128.4H116c-1.8,0-3.3-1.5-3.3-3.3v-23.6c0-1.8,1.5-3.3,3.3-3.3h35.5c1.8,0,3.3,1.5,3.3,3.3v23.6
							C154.9,126.9,153.4,128.4,151.6,128.4z"/>
					</g>
				</g>
			</g>
		</g>
		<g>
			<g>
				<g>
					<g>
						<path class="st11" d="M151.6,129.8H116c-1.8,0-3.3-1.5-3.3-3.3v-23.6c0-1.8,1.5-3.3,3.3-3.3h35.5c1.8,0,3.3,1.5,3.3,3.3v23.6
							C154.9,128.3,153.4,129.8,151.6,129.8z"/>
					</g>
				</g>
			</g>
		</g>
		<g>
			<g>
				<g>
					<g>
						<path class="st14" d="M138.6,117.2h-9.7c-1.4,0-2.5-1.1-2.5-2.5v-0.1c0-1.4,1.1-2.5,2.5-2.5h9.7c1.4,0,2.5,1.1,2.5,2.5v0.1
							C141.1,116.1,140,117.2,138.6,117.2z"/>
					</g>
				</g>
			</g>
		</g>
		<g>
			<g>
				<g>
					<g>
						<path class="st14" d="M115.9,142.2l13.2-0.8v0.2c-0.1,0.8,0.5,1.5,1.3,1.4c0.6,0,1.1-0.5,1.2-1l0.1-0.8l1.5-0.1l-0.1,0.4
							c-0.1,0.8,0.5,1.5,1.3,1.4c0.6,0,1.1-0.5,1.2-1l0.2-0.9l8.3-0.5c0.2-0.1,0.3-0.2,0.5-0.3c0.3-0.1,0.7-0.2,1-0.3
							c3.8-1.4,5.8-5.6,4.4-9.4c-1.4-3.8-5.6-5.8-9.4-4.4h-0.1l0,0l-26.3,9.5c-0.4,0.1-0.8,0.4-1.1,0.7
							C110.8,138.7,112.8,142.4,115.9,142.2z"/>
					</g>
				</g>
			</g>
		</g>
		<g>
			<g>
				<g>
					<g>
						
							<ellipse transform="matrix(0.9404 -0.3402 0.3402 0.9404 -37.3732 56.6995)" class="st15" cx="143" cy="134.9" rx="7.4" ry="7.4"/>
					</g>
				</g>
			</g>
		</g>
		<g>
			<g>
				<g>
					<g>
						<path class="st16" d="M114.1,137.5l26.3-9.5c2.8-1,5.8,0.4,6.8,3.2l0,0c1,2.8-0.4,10.1-3.2,11.2l-28.1,1.7
							c-3.1,0.2-5-3.6-2.9-5.8C113.4,137.9,113.7,137.6,114.1,137.5z"/>
					</g>
				</g>
			</g>
		</g>
		<g>
			<g>
				<g>
					<g>
						<path class="st14" d="M134.8,139.5L134.8,139.5c0.8,0,1.4,0.7,1.3,1.4l-0.5,2.8c-0.1,0.6-0.6,1-1.2,1l0,0
							c-0.8,0-1.4-0.7-1.3-1.4l0.5-2.8C133.7,140,134.2,139.5,134.8,139.5z"/>
					</g>
				</g>
			</g>
		</g>
		<g>
			<g>
				<g>
					<g>
						<path class="st14" d="M130.8,139.6L130.8,139.6c0.8,0,1.4,0.7,1.3,1.4l-0.5,2.8c-0.1,0.6-0.6,1-1.2,1l0,0
							c-0.8,0-1.4-0.7-1.3-1.4l0.5-2.8C129.7,140.1,130.2,139.7,130.8,139.6z"/>
					</g>
				</g>
			</g>
		</g>
		<g>
			<g>
				<g>
					<g>
						<path class="st12" d="M173,122l-30.7,8.3c-2.9,0.8-4.7,3.8-3.9,6.8v0.1c0.8,2.9,3.8,4.7,6.8,3.9l30.7-8.3
							c2.9-0.8,4.7-3.8,3.9-6.8v-0.1C179,123,175.9,121.2,173,122z"/>
					</g>
				</g>
			</g>
		</g>
		<g>
			<g>
				<g>
					<g>
						<path class="st14" d="M145,142.2l-13.2-0.8v0.2c0.1,0.8-0.5,1.5-1.3,1.4c-0.6,0-1.1-0.5-1.2-1l-0.1-0.8l-1.5-0.1l0.1,0.4
							c0.1,0.8-0.5,1.5-1.3,1.4c-0.6,0-1.1-0.5-1.2-1l-0.2-0.9l-8.3-0.5c-0.2-0.1-0.3-0.2-0.5-0.3c-0.3-0.1-0.7-0.2-1-0.3
							c-3.8-1.4-5.8-5.6-4.4-9.4c1.4-3.8,5.6-5.8,9.4-4.4h0.1l0,0l26.3,9.5c0.4,0.1,0.8,0.4,1.1,0.7
							C150,138.7,148.1,142.4,145,142.2z"/>
					</g>
				</g>
			</g>
		</g>
		<g>
			<g>
				<g>
					<g>
						
							<ellipse transform="matrix(0.3402 -0.9403 0.9403 0.3402 -49.2042 199.7464)" class="st15" cx="117.7" cy="134.9" rx="7.4" ry="7.4"/>
					</g>
				</g>
			</g>
		</g>
		<g>
			<g>
				<g>
					<g>
						<path class="st16" d="M146.7,137.5l-26.3-9.5c-2.8-1-5.8,0.4-6.8,3.2l0,0c-1,2.8,0.4,10.1,3.2,11.2l28.1,1.7
							c3.1,0.2,5-3.6,2.9-5.8C147.5,137.9,147.2,137.6,146.7,137.5z"/>
					</g>
				</g>
			</g>
		</g>
		<g>
			<g>
				<g>
					<g>
						<path class="st14" d="M126.1,139.5L126.1,139.5c-0.8,0-1.4,0.7-1.3,1.4l0.5,2.8c0.1,0.6,0.6,1,1.2,1l0,0
							c0.8,0,1.4-0.7,1.3-1.4l-0.5-2.8C127.2,140,126.7,139.5,126.1,139.5z"/>
					</g>
				</g>
			</g>
		</g>
		<g>
			<g>
				<g>
					<g>
						<path class="st14" d="M130.1,139.6L130.1,139.6c-0.8,0-1.4,0.7-1.3,1.4l0.5,2.8c0.1,0.6,0.6,1,1.2,1l0,0
							c0.8,0,1.4-0.7,1.3-1.4l-0.5-2.8C131.2,140.1,130.7,139.7,130.1,139.6z"/>
					</g>
				</g>
			</g>
		</g>
		<g>
			<g>
				<g>
					<g>
						<path class="st12" d="M87.9,122l30.7,8.3c2.9,0.8,4.7,3.8,3.9,6.8v0.1c-0.8,2.9-3.8,4.7-6.8,3.9L85,132.8
							c-3-0.8-4.7-3.8-3.9-6.8v-0.1C81.9,123,84.9,121.2,87.9,122z"/>
					</g>
				</g>
			</g>
		</g>
		<g>
			<g>
				<g>
					<g>
						<path class="st11" d="M133.5,17.7c-9.4,0-17.5,9.9-17.5,9.9c11.7,7.2,19.9,1.9,22.8-0.4c0.8-0.7,2.5-2.1,2.5-4L133.5,17.7z"/>
					</g>
				</g>
			</g>
		</g>
	</g>
</g>
</svg>
