<svg id="图层_2" data-name="图层 2" xmlns="http://www.w3.org/2000/svg" viewBox="0 0 2457.88 1409.58"><defs><style>.cls-1,.cls-10{fill:#10995e;}.cls-2{fill:#80d6b1;}.cls-3,.cls-7{fill:#4bbc8b;}.cls-14,.cls-4{fill:#fff;}.cls-5{fill:#f5fffa;}.cls-6{fill:#e7f7ef;}.cls-10,.cls-11,.cls-12,.cls-13,.cls-14,.cls-7,.cls-9{fill-rule:evenodd;}.cls-11,.cls-8{fill:#bfefda;}.cls-9{fill:#79e2b2;}.cls-12{fill:#e2f7ec;}.cls-13{fill:#05b570;}</style></defs><title>404</title><path class="cls-1" d="M3668.5,1039.29c141.5,44.74,234.86,89.81,255,202.37,13.14,73.33-29.46,150.09-93.61,188-31.32,18.5-69.75,31.51-86.13,64-25.45,50.45,20.28,108.3,68.58,137.65s107.2,52.6,129.19,104.67c14.49,34.3,8.81,74.27-5.54,108.64-52.61,126-206,181.25-342.42,174.5s-265.8-59.89-399.62-87.25c-459.54-94-941.34,119.31-1400.09,21.57-71.39-15.21-143.29-39-198.43-86.84-62.14-53.91-97.43-135.23-102.75-217.33-5.08-78.33,22.68-166.52,92.79-201.82,41-20.62,89.93-19.78,134.39-8.56,28.41,7.16,56.31,18.39,85.61,18.58s61.52-14.49,70-42.53c8.92-29.47-11.42-59.9-34.74-80-47.45-40.9-110.88-61.33-154-106.8-41.47-43.75-58.91-109-44.84-167.58s59.23-108.81,116-129c144.77-51.39,302.51,88.71,450.54,47.66,11-3.05,22.55-7.75,28.34-17.58,5.65-9.6,4.35-21.76,1.11-32.42-18.13-59.61-88.57-97.56-91.66-159.79-1.68-33.83,18.33-65.48,43.54-88.1,173.23-155.44,415.89,187.91,601,206C3216.49,929,3364.61,943.21,3668.5,1039.29Z" transform="translate(-1492.12 -641.05)"/><path class="cls-2" d="M1945.61,1960.6c0,65.71,220.6,78.42,228.6,0C2184.07,1863.92,1945.61,1845.52,1945.61,1960.6Z" transform="translate(-1492.12 -641.05)"/><path class="cls-3" d="M1970.75,1906.77c-15.43,12.81-25.15,30.6-25.15,53.83,0,58.8,176.62,75.16,219.52,21.77,0,0-82.46,27-158.46-14.37C1968.66,1947.33,1970.75,1906.77,1970.75,1906.77Z" transform="translate(-1492.12 -641.05)"/><path class="cls-4" d="M2628.07,2028c1.61-8.07-10.33-15.48-19.53-12.51,1.51-5.54-.21-10.56-8.36-13a20.87,20.87,0,0,0-11.06,0c6.43-12.82.44-27.41-19.43-30.43-21.61-3.29-45.58,7.33-49.87,24.38-17.57-17.27-54.79,3.42-43.81,23.29-6.79-1.08-13.79,2.76-14.2,8.48-6.87-2.33-12.29,4.68-8,10.7a2,2,0,0,0,1.57.72h183.38a2.05,2.05,0,0,0,1.12-.3,1.39,1.39,0,0,0,.63-.77C2642.57,2032.5,2634.88,2026.85,2628.07,2028Z" transform="translate(-1492.12 -641.05)"/><path class="cls-5" d="M2622.4,1576.87l0,0-34.68-58.67a0,0,0,0,1,0,0l28.81-17,0,0s4.07-5.39,3.21-10.86-3.82-12.47-8.86-21q-8.45-14.3-15-18.74c-4.35-3-10.51-2.07-10.51-2.07h0l-28.81,17h0L2441,1270l0,0s-2.85-2.91-5.31-3.27-5.77.08-9.9,1.28a98,98,0,0,0-15.61,6.52q-9.4,4.72-22.2,12.27-11.8,7-19.77,12.37a113.49,113.49,0,0,0-12.71,9.71,37,37,0,0,0-6.77,7.73,21.67,21.67,0,0,0-2,6.39.32.32,0,0,0,0,0L2351,1560.5v0s.6,8,1.2,11.46a59.24,59.24,0,0,0,2.83,10.51,105.63,105.63,0,0,0,5,11.4q3.11,6.12,7.85,14.15a128.53,128.53,0,0,0,10.15,15.16q4.36,5.38,8.1,7.4a9.85,9.85,0,0,0,7,1.27,44.92,44.92,0,0,0,6.77-2.82l0,0,124.15-73.38h0l34.68,58.67,0,0s2.3,2.85,4,3.56,4,.77,6.87.17a52.17,52.17,0,0,0,10.9-3.9q6.51-3,15.55-8.34,9.53-5.63,15.18-9.82a54.72,54.72,0,0,0,8.67-7.67q3-3.48,3.42-6.25C2623.74,1580.29,2622.4,1576.87,2622.4,1576.87Zm-215.36-23s0,0,0,0l-2.68-199.8a0,0,0,0,1,0,0l.46-.27h0L2493.06,1503a0,0,0,0,1,0,0Z" transform="translate(-1492.12 -641.05)"/><path class="cls-5" d="M3394.12,1299.44q-1.27-3.51-5.76-8.16a98.1,98.1,0,0,0-13.06-10.76q-8.56-6.11-21.22-13.89-11.67-7.17-20.17-11.71a113.56,113.56,0,0,0-14.53-6.7,36.92,36.92,0,0,0-10-2.38,21.65,21.65,0,0,0-6.56,1.25l0,0-208,114.69,0,0s-6.77,4.26-9.57,6.41a59.3,59.3,0,0,0-8,7.41,105.52,105.52,0,0,0-7.73,9.79q-4,5.61-8.84,13.55A128.6,128.6,0,0,0,3052,1415q-2.72,6.37-2.76,10.62a9.85,9.85,0,0,0,2.15,6.79,44.87,44.87,0,0,0,5.66,4.67l0,0,122.87,75.5a0,0,0,0,1,0,0l-35.68,58.07,0,0s-1.44,3.36-1.3,5.16,1.17,3.85,3.06,6.16a52.12,52.12,0,0,0,8.54,7.81q5.7,4.35,14.64,9.85,9.43,5.8,15.78,8.84a54.78,54.78,0,0,0,10.83,4.09q4.49,1,7.12.1c1.76-.63,4.15-3.41,4.15-3.41l0,0,35.68-58.07h0l28.52,17.52h0s6.66,1.08,11.1-2.23,9.24-9.2,14.43-17.64q8.7-14.15,9.58-22c.59-5.22-3.08-10.26-3.08-10.26l0,0-28.52-17.52a0,0,0,0,1,0,0L3393.7,1305.7l0,0S3395,1301.78,3394.12,1299.44ZM3212,1460.49h0l-85.13-52.31a0,0,0,0,1,0,0l175.41-95.7h0l.46.28a0,0,0,0,1,0,0Z" transform="translate(-1492.12 -641.05)"/><ellipse class="cls-6" cx="1340.91" cy="708.55" rx="188.31" ry="188.32"/><path class="cls-7" d="M2646.22,1326.16c55.87,7.94,149.79-32,179.89-37.8,61.2-11.88,124.07,2.27,186.46,4.33a187.32,187.32,0,0,0-17.32-38.7c-22.94,1-47.12-3-70.26-3.7-43.95-1.28-87.64,10.27-131.52,7.61-20.27-1.23-65.92-19-107.42-26A187.39,187.39,0,0,0,2646.22,1326.16Z" transform="translate(-1492.12 -641.05)"/><path class="cls-7" d="M2833,1161.29a188.31,188.31,0,0,0-55,8.18c23.6,13.47,70.88,18.3,81.85,19.77,19.73,2.64,41.15,3.59,58.09-6.86.23-.15.46-.32.69-.47A187.4,187.4,0,0,0,2833,1161.29Z" transform="translate(-1492.12 -641.05)"/><path class="cls-7" d="M3021.28,1352.23a364.66,364.66,0,0,0-166.39-2.88c-29.71,6.49-58.47,16.69-88,24a460.26,460.26,0,0,1-113.62,13.28c-1.61,0-3.25-.06-4.93-.14a187.94,187.94,0,0,0,52.49,97.21,648.25,648.25,0,0,0,128.9-62.45c35.42-22.3,70.85-48.87,112.53-52.68,25.88-2.37,51.31,4.37,76.92,9.67A189.64,189.64,0,0,0,3021.28,1352.23Z" transform="translate(-1492.12 -641.05)"/><path class="cls-7" d="M3011.3,1410.26c-25.54-3.78-71.2,18.69-82.38,28.15-10,8.45-18.39,18.78-29.16,26.19-13.68,9.41-30.21,13.5-46.28,17.66q-48.67,12.55-96.57,27.85c-4.05,1.3-8.45,3.07-10.43,6.73a188.15,188.15,0,0,0,148.83,10.48c19.55-27.89,31.22-64,62.15-77.15,5.22-2.21,23.6-4.84,40.19-9.14A187.61,187.61,0,0,0,3011.3,1410.26Z" transform="translate(-1492.12 -641.05)"/><circle class="cls-8" cx="996.44" cy="383.18" r="60.24"/><path class="cls-9" d="M2488.56,964a59.9,59.9,0,0,0-29.46,7.73,10,10,0,0,0,1.47,2c6.09,6.15,20.59,6.41,28.69,6.79a98.59,98.59,0,0,0,35.06-4.66A59.91,59.91,0,0,0,2488.56,964Z" transform="translate(-1492.12 -641.05)"/><path class="cls-9" d="M2534.63,996.21a32.54,32.54,0,0,0,5.82-2.47,60.53,60.53,0,0,0-5.21-7.57l-18,8.07a92.23,92.23,0,0,1-14.29,5.48c-7.28,1.91-14.89,2-22.41,2-15.61-.13-30.87-1.61-46.3-3.3a59.64,59.64,0,0,0-4.5,38.6c3.18-1.25,6-3.32,8.87-5.16,7.7-4.87,16.38-7.9,25-10.89Z" transform="translate(-1492.12 -641.05)"/><path class="cls-9" d="M2543.92,1000.48c-4.67,4.17-8.13,9.7-13.22,13.68a70.61,70.61,0,0,1-17.64,10.09c-4.46,1.75-9.12,3.05-13.4,5.22-1.59.8-3.27,1.92-3.66,3.65-.7,3.08,2.92,5.3,6,6,6.1,1.42,12.45,1.16,18.7.89l22.26-1c1.32-.06,2.67-.17,4-.33a59.52,59.52,0,0,0-3-38.25Z" transform="translate(-1492.12 -641.05)"/><path class="cls-9" d="M2490.14,1022.6a139.87,139.87,0,0,0-31.1,10.14c-6.62,3.06-13,6.65-20,8.77a35.26,35.26,0,0,1-7.86,1,60.32,60.32,0,0,0,19.14,28.26c.62-.74,1.22-1.49,1.8-2.25,9-12,15.13-27.06,28.13-34.5,2.36-1.36,4.93-2.43,7-4.21S2490.77,1025.26,2490.14,1022.6Z" transform="translate(-1492.12 -641.05)"/><path class="cls-9" d="M2543,1050a11.17,11.17,0,0,0-2-.07l-38.58,2.14c-8,.44-16.43,1-23,5.53-5.11,3.47-8.51,8.87-11.78,14.11-1.1,1.78-3.09,4.24-4.94,6.86a59.83,59.83,0,0,0,24.38,5.86c1.58-2,3-4.11,4.53-6.13a53,53,0,0,1,36.25-20.49c3.76-.4,7.57-.41,11.32-.81A59.85,59.85,0,0,0,2543,1050Z" transform="translate(-1492.12 -641.05)"/><path class="cls-10" d="M2543.84,1048.15a60,60,0,0,0,3.59-11.22,401.2,401.2,0,0,1-108.81,21,60.77,60.77,0,0,0,7.54,9.08,420.64,420.64,0,0,0,97.68-18.85Z" transform="translate(-1492.12 -641.05)"/><path class="cls-4" d="M2429.48,1062.79c-21.59,0-39.2-3.44-41.21-13.81-1.89-9.78,10.88-19.93,38-30.17a4.73,4.73,0,1,1,3.34,8.84c-27.42,10.37-32.29,18.15-32,19.53,1,5.17,35,11.16,96.48-.75,25.78-5,49.54-11.92,66.89-19.5,19.87-8.68,23.11-14.69,22.89-15.83-.28-1.43-8.06-7-38.94-6.11a4.72,4.72,0,0,1-.28-9.45c30.21-.9,46.55,3.74,48.49,13.76,1.67,8.61-7.61,17.2-28.38,26.28-18,7.85-42.44,15-68.88,20.12C2477.89,1059.18,2451.6,1062.79,2429.48,1062.79Z" transform="translate(-1492.12 -641.05)"/><path class="cls-11" d="M3045.91,812.39A39.35,39.35,0,1,1,3030,759,39.36,39.36,0,0,1,3045.91,812.39Z" transform="translate(-1492.12 -641.05)"/><path class="cls-12" d="M3030,759a39.1,39.1,0,0,0-19.33-4.72,6.75,6.75,0,0,0,.23,1.59c1.59,5.42,9.84,10.08,14.37,12.82A64.51,64.51,0,0,0,3046.9,777,39.16,39.16,0,0,0,3030,759Z" transform="translate(-1492.12 -641.05)"/><path class="cls-12" d="M3046.48,791.88a21.26,21.26,0,0,0,4.11.38,39.72,39.72,0,0,0-.64-6l-12.87-1a60.52,60.52,0,0,1-9.92-1.3c-4.77-1.17-9.18-3.46-13.48-5.84a295.81,295.81,0,0,1-25.57-16.3,38.94,38.94,0,0,0-14.59,20.77,35.42,35.42,0,0,0,6.7-.21c5.94-.4,11.87.56,17.74,1.51Z" transform="translate(-1492.12 -641.05)"/><path class="cls-12" d="M3050.49,797.23c-4,.94-7.69,3-11.85,3.75a46.17,46.17,0,0,1-13.27.31c-3.11-.38-6.19-1.08-9.32-1.17a4.06,4.06,0,0,0-3.24,1c-1.35,1.55,0,4,1.58,5.31,3.06,2.72,6.79,4.53,10.47,6.33l13.09,6.37c.78.38,1.58.74,2.4,1.06a38.92,38.92,0,0,0,10.14-22.92Z" transform="translate(-1492.12 -641.05)"/><path class="cls-12" d="M3012.72,793.21a91.2,91.2,0,0,0-21-3.85c-4.76-.3-9.56-.23-14.23-1.19a23.43,23.43,0,0,1-4.82-1.88,39.37,39.37,0,0,0,2.21,22.18c.58-.23,1.16-.47,1.73-.73,8.9-4.08,17.11-10.85,26.89-11.07a27.11,27.11,0,0,0,5.32-.25A5,5,0,0,0,3012.72,793.21Z" transform="translate(-1492.12 -641.05)"/><path class="cls-12" d="M3034.55,825.36a7.5,7.5,0,0,0-1.13-.67l-22.83-10.77c-4.73-2.23-9.75-4.51-15-4-4,.4-7.65,2.45-11.15,4.45-1.19.67-3.1,1.47-5,2.4a39.15,39.15,0,0,0,12.19,10.95c1.52-.65,3-1.43,4.51-2.11a34.65,34.65,0,0,1,27.2-.51c2.29.94,4.47,2.12,6.76,3.05A39.49,39.49,0,0,0,3034.55,825.36Z" transform="translate(-1492.12 -641.05)"/><path class="cls-13" d="M3411.06,1971.35c-47.81-255.83-262.46-458.21-532.16-458.21s-494.14,193.66-541.95,449.49c0,0,413.52-54.64,552.39-57.62C3105.33,1900.37,3411.06,1971.35,3411.06,1971.35Z" transform="translate(-1492.12 -641.05)"/><path class="cls-11" d="M2979.92,1828.92c-2.54,19.32-32.48,31.31-66.86,26.77s-60.19-23.86-57.64-43.19,32.48-31.31,66.86-26.78S2982.48,1809.59,2979.92,1828.92Z" transform="translate(-1492.12 -641.05)"/><path class="cls-13" d="M2456.31,1730.79l-72.91,138.3-20.07-10.59a22,22,0,0,1-9.19-29.68l52.41-99.41a22,22,0,0,1,29.7-9.19Z" transform="translate(-1492.12 -641.05)"/><path class="cls-13" d="M3369.86,1866.21l-43.49-108.89,21.07-8.42a22,22,0,0,1,28.57,12.26l27.18,68.07a22,22,0,0,1-12.26,28.56Z" transform="translate(-1492.12 -641.05)"/><path class="cls-13" d="M2694.38,1561.06l-127,91.19-13.23-18.43a22,22,0,0,1,5-30.68l91.29-65.54a22,22,0,0,1,30.67,5Z" transform="translate(-1492.12 -641.05)"/><path class="cls-13" d="M3269.78,1712.1l-124.71-94.29,13.69-18.09a22,22,0,0,1,30.78-4.27l89.64,67.77a22,22,0,0,1,4.28,30.78Z" transform="translate(-1492.12 -641.05)"/><ellipse class="cls-8" cx="2622.05" cy="1694.6" rx="87.94" ry="39.08" transform="translate(-1975.19 729.46) rotate(-26.92)"/><path class="cls-10" d="M2609.94,1676.5c39.12-19.86,77.92-23.53,92.28-9.89a20,20,0,0,0-1.75-11.82c-9.77-19.25-52.8-17-96.11,5s-70.49,55.41-60.72,74.66a18.25,18.25,0,0,0,3.83,4.93C2549.95,1720.07,2574.54,1694.47,2609.94,1676.5Z" transform="translate(-1492.12 -641.05)"/><path class="cls-11" d="M3230.15,1721c-7.68,12.29-36.33,8.23-64-9s-43.83-41.26-36.14-53.53,36.32-8.24,64,9S3237.83,1708.77,3230.15,1721Z" transform="translate(-1492.12 -641.05)"/><path class="cls-10" d="M3186.31,1676.52c25,15.62,40.52,36.65,37.65,49.63a13.4,13.4,0,0,0,6.19-5.1c7.68-12.28-8.51-36.26-36.15-53.54s-56.28-21.33-64-9a12.05,12.05,0,0,0-1.5,3.9C3140.47,1657.12,3163.71,1662.4,3186.31,1676.52Z" transform="translate(-1492.12 -641.05)"/><path class="cls-10" d="M2923.28,1779.27c-34.91-4.59-65.29,7.57-67.88,27.19a20.45,20.45,0,0,0-.08,4.26c7.57-15.83,35-25,65.94-20.9,32.37,4.27,57.2,21.47,58.58,39.59a20.64,20.64,0,0,0,1.93-6.29C2984.38,1803.51,2958.18,1783.88,2923.28,1779.27Z" transform="translate(-1492.12 -641.05)"/><path class="cls-2" d="M3269,1986.41c0,77.93,261.63,93,271.11,0C3551.83,1871.75,3269,1849.94,3269,1986.41Z" transform="translate(-1492.12 -641.05)"/><path class="cls-3" d="M3296.93,1924.22c-17.18,15.05-27.9,35.62-27.9,62.19,0,62.25,166.94,84.39,238.95,43.38,0,0-91.31,1.55-153.31-31.12C3308.12,1974.14,3296.93,1924.22,3296.93,1924.22Z" transform="translate(-1492.12 -641.05)"/><circle class="cls-8" cx="462.74" cy="655.31" r="20.18"/><circle class="cls-4" cx="1534.56" cy="420.67" r="11.65"/><path class="cls-14" d="M3528,1597.25a11.65,11.65,0,1,1-11.65-11.66A11.66,11.66,0,0,1,3528,1597.25Z" transform="translate(-1492.12 -641.05)"/><path class="cls-14" d="M2037.92,1786.62a11.65,11.65,0,1,1-11.65-11.65A11.66,11.66,0,0,1,2037.92,1786.62Z" transform="translate(-1492.12 -641.05)"/><circle class="cls-4" cx="1207.04" cy="301.91" r="11.65"/><polygon class="cls-14" points="1077.38 585.13 1092.92 594 1077.07 602.3 1068.18 617.83 1059.89 601.97 1044.36 593.1 1060.21 584.81 1069.09 569.27 1077.38 585.13"/><polygon class="cls-14" points="1809.25 421.62 1819.4 427.42 1809.05 432.83 1803.25 442.98 1797.84 432.62 1787.69 426.83 1798.05 421.42 1803.85 411.27 1809.25 421.62"/><polygon class="cls-14" points="611.96 908.5 622.1 914.3 611.75 919.71 605.96 929.85 600.54 919.5 590.4 913.7 600.75 908.29 606.55 898.14 611.96 908.5"/><polygon class="cls-14" points="307.51 1112.18 317.66 1117.98 307.31 1123.38 301.51 1133.52 296.1 1123.18 285.95 1117.38 296.3 1111.96 302.11 1101.82 307.51 1112.18"/><polygon class="cls-14" points="2150.56 825.92 2160.7 831.71 2150.35 837.12 2144.55 847.27 2139.14 836.91 2128.99 831.12 2139.34 825.71 2145.14 815.56 2150.56 825.92"/><polygon class="cls-14" points="2275.73 1234.28 2285.88 1240.08 2275.53 1245.49 2269.73 1255.64 2264.31 1245.28 2254.17 1239.49 2264.52 1234.08 2270.32 1223.93 2275.73 1234.28"/></svg>