<?xml version="1.0" encoding="utf-8"?>
<!-- Generator: Adobe Illustrator 24.0.0, SVG Export Plug-In . SVG Version: 6.00 Build 0)  -->
<svg version="1.1" id="图层_1" xmlns="http://www.w3.org/2000/svg" xmlns:xlink="http://www.w3.org/1999/xlink" x="0px" y="0px"
	 viewBox="0 0 20 20" style="enable-background:new 0 0 20 20;" xml:space="preserve">
<style type="text/css">
	.st0{fill-opacity:0;}
	.st1{fill-opacity:0.85;}
</style>
<title>眼睛</title>
<rect id="矩形" class="st0" width="20" height="20"/>
<path id="形状" class="st1" d="M10,5c-3.6,0-6.7,2.3-8,5.5c1.3,3.2,4.4,5.5,8,5.5c3.6,0,6.7-2.3,8-5.5C16.7,7.3,13.6,5,10,5z
	 M10,14.1c-2,0-3.6-1.6-3.6-3.6S8,6.8,10,6.8s3.6,1.6,3.6,3.6S12,14.1,10,14.1z M10,8.3c-1.2,0-2.2,1-2.2,2.2s1,2.2,2.2,2.2
	s2.2-1,2.2-2.2S11.2,8.3,10,8.3z"/>
</svg>
